<?xml version="1.0" encoding="UTF-8" standalone="no"?>
<svg width="17px" height="16px" viewBox="0 0 17 16" version="1.1" xmlns="http://www.w3.org/2000/svg" xmlns:xlink="http://www.w3.org/1999/xlink" xmlns:sketch="http://www.bohemiancoding.com/sketch/ns">
    <!-- Generator: Sketch 3.0.2 (7799) - http://www.bohemiancoding.com/sketch -->
    <title>facebook_grey_hover</title>
    <description>Created with Sketch.</description>
    <defs></defs>
    <g id="Page-1" stroke="none" stroke-width="1" fill="none" fill-rule="evenodd" sketch:type="MSPage">
        <g id="assets" sketch:type="MSArtboardGroup" transform="translate(-308.000000, -128.000000)" fill-opacity="0.6" fill="#000000">
            <path d="M308.92557,128 C308.417215,128 308,128.412 308,128.914 L308,143.086 C308,143.588 308.417215,144 308.92557,144 L323.276962,144 C323.785316,144 324.202532,143.588 324.202532,143.086 L324.202532,128.914 C324.202532,128.412 323.785316,128 323.276962,128 L308.92557,128 Z M321.160885,136.744329 L319.034489,136.744329 L319.034489,142.545455 L316.869413,142.545455 L316.869413,136.744329 L315.364787,136.744329 L315.364787,134.65545 L316.869413,134.65545 L316.869413,132.87231 C316.869413,131.469861 317.757104,130.181818 319.805175,130.181818 C320.63388,130.181818 321.24598,130.263677 321.24598,130.263677 L321.198598,132.213494 C321.198598,132.213494 320.57296,132.207577 319.891236,132.207577 C319.152461,132.207577 319.034489,132.554737 319.034489,133.130707 L319.034489,133.228346 L319.034489,134.65545 L321.256617,134.65545 L321.160885,136.744329 Z" id="Fill-26" sketch:type="MSShapeGroup"></path>
        </g>
    </g>
</svg>