<?xml version="1.0" encoding="UTF-8" standalone="no"?>
<svg width="18px" height="16px" viewBox="0 0 18 16" version="1.1" xmlns="http://www.w3.org/2000/svg" xmlns:xlink="http://www.w3.org/1999/xlink" xmlns:sketch="http://www.bohemiancoding.com/sketch/ns">
    <!-- Generator: Sketch 3.0.2 (7799) - http://www.bohemiancoding.com/sketch -->
    <title>google_plus_grey_hover</title>
    <description>Created with Sketch.</description>
    <defs></defs>
    <g id="Page-1" stroke="none" stroke-width="1" fill="none" fill-rule="evenodd" sketch:type="MSPage">
        <g id="assets" sketch:type="MSArtboardGroup" transform="translate(-372.000000, -128.000000)" fill-opacity="0.6" fill="#000000">
            <path d="M386.783841,128 L373.565986,128 C372.741789,128 372.073648,128.421053 372.073648,129.473684 L372.073648,143.082737 C372.073648,143.896632 372.741789,144 373.565986,144 L386.783841,144 C387.608038,144 388.27618,143.896632 388.27618,143.082737 L388.27618,129.473684 C388.27618,128.421053 387.608038,128 386.783841,128 Z M378.577704,139.441039 L377.763675,138.797714 C377.515784,138.59013 377.177287,138.313974 377.177287,137.808 C377.177287,137.300779 377.515784,136.977662 377.809285,136.679065 C378.757691,135.920416 379.641261,135.113143 379.641261,133.40987 C379.641261,131.854961 378.814346,130.981818 378.260069,130.493506 L379.643715,130.493506 L380.911392,129.454545 L376.139092,129.454545 C374.955068,129.476779 373.542992,129.657558 372.255884,130.739948 C372.195548,130.792519 372.130098,130.853818 372.073648,130.909091 L372.073648,136.519481 C372.692556,137.042286 373.533788,137.438961 374.558279,137.438961 C374.784694,137.438961 375.032175,137.415065 375.281089,137.392623 C375.168392,137.669195 375.055287,137.899844 375.055287,138.291117 C375.055287,139.00426 375.416078,139.441039 375.732691,139.856208 C374.869574,139.915429 373.096298,139.766234 372.073648,140.597403 L372.073648,141.922078 C372.539567,141.278545 373.284057,140.990961 373.610282,140.869818 C374.558279,140.547117 375.777892,140.500779 375.982013,140.500779 C376.206587,140.500779 376.319692,140.500779 376.499679,140.524468 C378.216504,141.768312 379.446753,142.408104 379.459433,143.584416 C379.461888,143.812364 379.398279,143.883221 379.364736,144 L380.686614,144 C380.822831,143.676675 380.868441,143.294338 380.868441,142.868779 C380.868441,141.279792 379.570493,140.293195 378.577704,139.441039 Z M383.939499,129.454545 L385.237259,129.454545 L385.237259,132.449198 L388.27618,132.449198 L388.27618,133.70631 L385.237259,133.70631 L385.237259,136.727273 L383.939499,136.727273 L383.939499,133.70631 L380.911392,133.70631 L380.911392,132.449198 L383.939499,132.449198 L383.939499,129.454545 Z M375.725904,136.727273 C373.658757,136.727273 372.810127,134.352398 372.810127,132.747297 C372.810127,132.122695 372.873045,131.476457 373.281684,130.972794 C373.66703,130.493579 374.339315,130.181818 374.964793,130.181818 C376.958573,130.181818 377.965478,132.86629 377.965478,134.592547 C377.965478,134.938058 377.78848,135.613935 377.337605,136.12755 C376.942245,136.575395 376.326346,136.727273 375.725904,136.727273 Z" id="Fill-1" sketch:type="MSShapeGroup"></path>
        </g>
    </g>
</svg>