<?xml version="1.0" encoding="UTF-8" standalone="no"?>
<svg width="19px" height="16px" viewBox="0 0 19 16" version="1.1" xmlns="http://www.w3.org/2000/svg" xmlns:xlink="http://www.w3.org/1999/xlink" xmlns:sketch="http://www.bohemiancoding.com/sketch/ns">
    <!-- Generator: Sketch 3.0.2 (7799) - http://www.bohemiancoding.com/sketch -->
    <title>twitter_grey_hover</title>
    <description>Created with Sketch.</description>
    <defs></defs>
    <g id="Page-1" stroke="none" stroke-width="1" fill="none" fill-rule="evenodd" sketch:type="MSPage">
        <g id="assets" sketch:type="MSArtboardGroup" transform="translate(-339.000000, -128.000000)" fill-opacity="0.6" fill="#000000">
            <path d="M357.344074,130.448833 C356.693395,130.741913 355.994108,130.93879 355.260575,131.02828 C356.009574,130.573001 356.585132,129.852607 356.855788,128.995742 C356.155397,129.416344 355.37878,129.721729 354.553556,129.887285 C353.89183,129.173603 352.949505,128.727273 351.906651,128.727273 C349.903797,128.727273 348.279862,130.371649 348.279862,132.399712 C348.279862,132.686079 348.311899,132.967972 348.373763,133.236442 C345.360092,133.083191 342.687779,131.62115 340.899241,129.400684 C340.58771,129.942097 340.407641,130.573001 340.407641,131.245293 C340.407641,132.520523 341.048377,133.643621 342.021634,134.30249 C341.427296,134.283473 340.867204,134.116798 340.378918,133.841617 L340.378918,133.888599 C340.378918,135.668328 341.628354,137.151622 343.287641,137.489446 C342.982739,137.573343 342.662371,137.61697 342.33206,137.61697 C342.098964,137.61697 341.871392,137.595716 341.649344,137.552089 C342.111116,139.010774 343.450035,140.073466 345.037514,140.101431 C343.795811,141.086938 342.232635,141.674215 340.533579,141.674215 C340.240829,141.674215 339.952497,141.657436 339.668585,141.62164 C341.27374,142.664196 343.179379,143.272727 345.227526,143.272727 C351.897814,143.272727 355.544488,137.677375 355.544488,132.824789 C355.544488,132.667063 355.541174,132.5071 355.534545,132.349374 C356.243774,131.831451 356.857998,131.184887 357.344074,130.448833" id="Twitter-2" sketch:type="MSShapeGroup"></path>
        </g>
    </g>
</svg>